<?xml version="1.0" ?><!DOCTYPE svg  PUBLIC '-//W3C//DTD SVG 1.1//EN'  'http://www.w3.org/Graphics/SVG/1.1/DTD/svg11.dtd'><svg enable-background="new 0 0 512 512" id="Layer_2" version="1.1" viewBox="0 0 512 512" xml:space="preserve" xmlns="http://www.w3.org/2000/svg" xmlns:xlink="http://www.w3.org/1999/xlink"><g><circle cx="256.1" cy="297.3" fill="#60ADE0" r="167.2"/><g><defs><circle cx="256.1" cy="297.3" id="SVGID_1_" r="167.2"/></defs><clipPath id="SVGID_2_"><use overflow="visible" xlink:href="#SVGID_1_"/></clipPath><g clip-path="url(#SVGID_2_)"><path d="M380.3,378.9c-3.1-35.7-16.4-65.4-39.3-88.4c-23.3-23.4-50.4-33.5-68.9-37.9     c-36.1-8.5-75.5-23.1-94.7-67.2c-17.3-39.7-15-85.2-15-85.7c0.4-7-5-13.1-12-13.5c-7-0.4-13.1,5-13.5,12     c-0.1,2.1-2.8,51.9,17,97.3c15,34.5,39.9,54.3,66.2,66.5c-13.4,6.1-27.8,15.1-41,28.3c-23,23-36.2,52.8-39.3,88.4l0,0.5     c-2.9,59.6-3,67-3,67.6c0,7,5.7,12.8,12.8,12.8s12.8-5.7,12.8-12.7c0,0,0,0,0-0.1h136c4.7,0,8.5-3.8,8.5-8.5s-3.8-8.5-8.5-8.5     H162.8c0.2-4.4,0.4-10,0.8-17h163.5c4.7,0,8.5-3.8,8.5-8.5s-3.8-8.5-8.5-8.5H164.4c0.2-4.6,0.5-9.6,0.7-15h163     c4.7,0,8.5-3.8,8.5-8.5s-3.8-8.5-8.5-8.5H167.7c1.2-5.7,2.7-11,4.5-16h140.9c4.7,0,8.5-3.8,8.5-8.5s-3.8-8.5-8.5-8.5H180     c2.7-4.7,5.6-9,8.7-13h91.4c4.7,0,8.5-3.8,8.5-8.5s-3.8-8.5-8.5-8.5h-74.6c18.7-15.2,38.8-21.4,48.3-23.6c1.6-0.4,3.1-1.1,4.4-2     c2.7,0.7,5.3,1.3,7.9,2c19,4.5,81.7,25.2,88.7,103.5c2.9,58.2,3,65.9,3,66.1c0,7,5.7,12.8,12.8,12.8s12.8-5.7,12.8-12.8     c0-0.6-0.1-8-3-67.6L380.3,378.9z" fill="#E5E5E5"/><path d="M189.6,163h160.9c-1.4,5.3-3.1,10.7-5.1,16H204.6c-4.7,0-8.5,3.8-8.5,8.5s3.8,8.5,8.5,8.5h132.9     c-2.6,4.6-5.6,9-8.8,13h-91.1c-4.7,0-8.5,3.8-8.5,8.5s3.8,8.5,8.5,8.5h75.9c-1.8,4.4-1.2,9.5,2.2,13.3c2.5,2.9,6.1,4.4,9.6,4.4     c3,0,6-1,8.4-3.2c13.9-12.1,24.8-27.2,32.5-44.9c19.8-45.4,17.2-95.2,17-97.3c-0.4-7-6.4-12.4-13.5-12c-7,0.4-12.4,6.4-12,13.5     c0,0.2,0.3,5.6,0,14.3H209.6c-4.7,0-8.5,3.8-8.5,8.5s3.8,8.5,8.5,8.5h146.8c-0.5,4.7-1.2,9.7-2.1,15H189.6     c-4.7,0-8.5,3.8-8.5,8.5S184.9,163,189.6,163z" fill="#E5E5E5"/></g></g><g><path d="M353.6,433.1c-0.3-8-1-24.7-2.7-59.3c-7-78.3-69.6-99-88.7-103.5c-39.7-9.3-88.4-27.1-112.3-81.8    c-19.8-45.4-17.2-95.2-17-97.3c0.4-7,6.5-12.4,13.5-12c7,0.4,12.4,6.4,12,13.5l0,0c0,0.5-2.4,46,15,85.7    c19.2,44.1,58.7,58.7,94.7,67.2c18.6,4.4,45.6,14.5,68.9,37.9c23,23,36.2,52.8,39.3,88.4l0,0.5c0.8,16.9,1.4,29.6,1.9,39.1    C367.3,422.8,360,428.3,353.6,433.1z" fill="#4A5055"/><path d="M334.1,219H233.6c-4.7,0-8.5-3.8-8.5-8.5s3.8-8.5,8.5-8.5h100.6c4.7,0,8.5,3.8,8.5,8.5    S338.8,219,334.1,219z" fill="#F06A46"/><path d="M343.1,189H200.6c-4.7,0-8.5-3.8-8.5-8.5s3.8-8.5,8.5-8.5h142.6c4.7,0,8.5,3.8,8.5,8.5    S347.8,189,343.1,189z" fill="#F06A46"/><path d="M361.1,156H185.6c-4.7,0-8.5-3.8-8.5-8.5s3.8-8.5,8.5-8.5h175.6c4.7,0,8.5,3.8,8.5,8.5    S365.8,156,361.1,156z" fill="#F06A46"/><path d="M361.1,124H205.6c-4.7,0-8.5-3.8-8.5-8.5s3.8-8.5,8.5-8.5h155.6c4.7,0,8.5,3.8,8.5,8.5    S365.8,124,361.1,124z" fill="#F06A46"/><path d="M276.1,311H175.6c-4.7,0-8.5-3.8-8.5-8.5s3.8-8.5,8.5-8.5h100.6c4.7,0,8.5,3.8,8.5,8.5    S280.8,311,276.1,311z" fill="#F06A46"/><path d="M309.1,341H166.6c-4.7,0-8.5-3.8-8.5-8.5s3.8-8.5,8.5-8.5h142.6c4.7,0,8.5,3.8,8.5,8.5    S313.8,341,309.1,341z" fill="#F06A46"/><path d="M294.1,440H168.9c0,0-9-5.5-13.8-9.6c-5.1-4.4-6-7.4-3.5-7.4h142.6c4.7,0,8.5,3.8,8.5,8.5    S298.8,440,294.1,440z" fill="#F06A46"/><path d="M324.1,374H148.6c-4.7,0-8.5-3.8-8.5-8.5s3.8-8.5,8.5-8.5h175.6c4.7,0,8.5,3.8,8.5,8.5    S328.8,374,324.1,374z" fill="#F06A46"/><path d="M323.1,406H148.6c-4.7,0-8.5-3.8-8.5-8.5s3.8-8.5,8.5-8.5h174.6c4.7,0,8.5,3.8,8.5,8.5    S327.8,406,323.1,406z" fill="#F06A46"/><path d="M133.8,411.4c0.4-9.5,1-22.2,1.9-39l0-0.5c3.1-35.7,16.4-65.4,39.3-88.4c23.3-23.4,50.4-33.5,68.9-37.9    c6.9-1.6,13.7,2.6,15.3,9.5c1.6,6.9-2.6,13.7-9.5,15.3c-19,4.5-81.7,25.2-88.7,103.5c-1.6,33.4-2.4,50.8-2.7,59.1    C152.7,429.3,143.1,421,133.8,411.4z" fill="#4A5055"/><path d="M321.2,236.7c-3.5,0-7.1-1.5-9.6-4.4c-4.6-5.3-4.1-13.4,1.2-18c11.2-9.8,19.6-21.5,25.9-35.9    c17.3-39.7,15-85.2,15-85.7c-0.4-7,5-13.1,12-13.5c7-0.4,13.1,5,13.5,12c0.1,2.1,2.8,51.9-17,97.3c-7.7,17.7-18.6,32.8-32.5,44.9    C327.2,235.7,324.2,236.7,321.2,236.7z" fill="#4A5055"/></g><path d="M143.2,144.4c-0.7,0-1.3-0.5-1.4-1.2c0-0.1-2.1-11.7-3.1-23.5c-1.1-12-0.9-27.4-0.9-27.5   c0-0.8,0.7-1.4,1.4-1.4c0.8,0,1.4,0.7,1.4,1.4c0,0.2-0.2,15.4,0.9,27.2c1,11.7,3.1,23.1,3.1,23.2c0.1,0.8-0.4,1.5-1.1,1.6   C143.4,144.4,143.3,144.4,143.2,144.4z" fill="#FFFFFF"/><path d="M359.5,103.4C359.5,103.4,359.4,103.4,359.5,103.4c-0.9,0-1.5-0.7-1.4-1.5c0.2-4.4,0-9.6,0-9.6   c0-0.8,0.6-1.4,1.3-1.5c0.8,0,1.4,0.6,1.5,1.3c0,0.2,0.3,5.4,0,9.9C360.9,102.8,360.2,103.4,359.5,103.4z" fill="#FFFFFF"/></g></svg>